<?xml version="1.0" encoding="UTF-8"?>
<svg width="121px" height="25px" viewBox="0 0 121 25" version="1.1" xmlns="http://www.w3.org/2000/svg" xmlns:xlink="http://www.w3.org/1999/xlink">
    <title>B01D0344-7073-459C-942F-C48FC61447A6</title>
    <defs>
        <filter id="filter-1">
            <feColorMatrix in="SourceGraphic" type="matrix" values="0 0 0 0 0.109804 0 0 0 0 0.121569 0 0 0 0 0.156863 0 0 0 1.000000 0"></feColorMatrix>
        </filter>
        <polygon id="path-2" points="0.36828 0.49362 7.79988 0.49362 7.79988 14.4 0.36828 14.4"></polygon>
        <polygon id="path-4" points="0.47226 0.49338 11.36226 0.49338 11.36226 14.4 0.47226 14.4"></polygon>
        <polygon id="path-6" points="0.15666 0.49356 12.93726 0.49356 12.93726 14.4 0.15666 14.4"></polygon>
        <polygon id="path-8" points="0 0.50292 22.8966 0.50292 22.8966 23.4 0 23.4"></polygon>
    </defs>
    <g id="MOB" stroke="none" stroke-width="1" fill="none" fill-rule="evenodd">
        <g id="reclamaciones-1-mob" transform="translate(-128.000000, -60.000000)">
            <g id="Group-19" transform="translate(128.000000, 60.000000)" filter="url(#filter-1)">
                <g>
                    <path d="M85.77012,15.2562 L83.02452,15.2562 L83.02452,11.352 L85.77012,11.3502 C86.84532,11.3502 87.72192,12.225 87.72192,13.2996 C87.72192,14.3778 86.84532,15.2562 85.77012,15.2562 L85.77012,15.2562 Z M83.02452,17.0124 L86.30712,17.0124 C87.61632,17.0124 88.68072,18.0666 88.68072,19.3626 C88.68072,20.6694 87.61632,21.7338 86.30832,21.7338 L83.02452,21.7338 L83.02452,17.0124 Z M88.45992,15.8538 C89.11632,15.1656 89.48292,14.2584 89.48292,13.2996 C89.48292,11.253 87.81612,9.5874 85.76892,9.5874 L81.26412,9.5874 L81.26412,23.4972 L86.30712,23.4942 C88.58352,23.4942 90.43692,21.6414 90.43692,19.3626 C90.43692,17.8974 89.69052,16.5924 88.45992,15.8538 L88.45992,15.8538 Z" id="Fill-1" fill="#1B1F28"></path>
                    <g id="Group-5" transform="translate(112.200000, 9.097260)">
                        <mask id="mask-3" fill="white">
                            <use xlink:href="#path-2"></use>
                        </mask>
                        <g id="Clip-4"></g>
                        <polygon id="Fill-3" fill="#1B1F28" mask="url(#mask-3)" points="2.12868 12.63942 2.12868 0.49362 0.36828 0.49362 0.36828 14.40042 7.79988 14.40042 7.79988 12.63942"></polygon>
                    </g>
                    <g id="Group-8" transform="translate(62.400000, 9.097260)">
                        <mask id="mask-5" fill="white">
                            <use xlink:href="#path-4"></use>
                        </mask>
                        <g id="Clip-7"></g>
                        <polygon id="Fill-6" fill="#1B1F28" mask="url(#mask-5)" points="9.59766 0.49938 9.59766 11.89218 2.77026 0.49338 0.47226 0.49338 0.47226 14.39658 2.23326 14.39658 2.23326 2.99838 9.06546 14.40018 11.36226 14.40018 11.36226 0.49938"></polygon>
                    </g>
                    <polygon id="Fill-9" fill="#1B1F28" points="52.02834 9.88086 51.91374 9.58386 49.97394 9.58386 44.54454 23.49726 46.43574 23.49726 50.94294 11.94966 55.45374 23.49726 57.34314 23.49726"></polygon>
                    <g id="Group-13" transform="translate(29.400000, 9.097260)">
                        <mask id="mask-7" fill="white">
                            <use xlink:href="#path-6"></use>
                        </mask>
                        <g id="Clip-12"></g>
                        <polygon id="Fill-11" fill="#1B1F28" mask="url(#mask-7)" points="10.79706 0.49356 6.54306 6.60996 2.29926 0.49356 0.15666 0.49356 5.65986 8.42616 5.66706 14.40036 7.42266 14.40036 7.42806 8.42616 12.93726 0.49356"></polygon>
                    </g>
                    <polygon id="Fill-14" fill="#1B1F28" points="101.85876 9.87906 101.74236 9.58386 99.80256 9.58386 94.37556 23.49726 96.26556 23.49726 100.77276 11.94966 105.17136 23.21166 105.29136 23.49726 107.17236 23.49726"></polygon>
                    <g id="Group-18" transform="translate(0.000000, 0.097260)">
                        <mask id="mask-9" fill="white">
                            <use xlink:href="#path-8"></use>
                        </mask>
                        <g id="Clip-17"></g>
                        <path d="M15.9738,7.42632 L15.975,7.42632 L18.0966,5.30292 L18.0954,5.30292 L22.8966,0.50292 C19.6926,1.23972 16.6422,2.83812 14.1258,5.30292 L1.2432,5.30292 C0.5592,5.30292 0,5.86092 0,6.54672 L0,22.15752 C0,22.84332 0.5592,23.40012 1.2432,23.40012 L16.8552,23.40012 C17.5392,23.40012 18.0966,22.84332 18.0966,22.15752 L18.0966,9.28152 L15.975,11.40312 L15.975,21.27732 L2.124,21.27732 L2.124,7.42632 L12.2634,7.42632 C10.6848,9.52932 9.6132,11.89452 9.0492,14.35212 L15.9738,7.42632 Z" id="Fill-16" fill="#1B1F28" mask="url(#mask-9)"></path>
                    </g>
                </g>
            </g>
        </g>
    </g>
</svg>