<?xml version="1.0" encoding="UTF-8"?>
<svg width="200px" height="39px" viewBox="0 0 200 39" version="1.1" xmlns="http://www.w3.org/2000/svg" xmlns:xlink="http://www.w3.org/1999/xlink">
    <title>52255F40-9EDE-4FF7-AEF1-34A5C4062274</title>
    <g id="r8" stroke="none" stroke-width="1" fill="none" fill-rule="evenodd">
        <g id="home-header-no-commerce" transform="translate(-600.000000, -60.000000)" fill="#1C1F28" fill-rule="nonzero">
            <g id="yanbal-logo" transform="translate(600.000000, 60.000000)">
                <polygon id="l" points="191.020931 35.9065267 191.020931 15.1351351 188.235294 15.1351351 188.235294 38.9189189 200 38.9189189 200 35.9065267"></polygon>
                <polygon id="a" points="169.725454 15.6386455 169.532621 15.1351351 166.289332 15.1351351 157.219251 38.9189189 160.376381 38.9189189 167.912002 19.1773792 175.264791 38.4303565 175.464548 38.9189189 178.609626 38.9189189"></polygon>
                <path d="M142.1548,24.8784627 L137.759534,24.8784627 L137.759534,18.2255373 L142.1548,18.2229237 C143.875007,18.2229237 145.275866,19.7124158 145.275866,21.5435058 C145.275866,23.3821752 143.875007,24.8784627 142.1548,24.8784627 L142.1548,24.8784627 Z M137.759534,27.8699923 L143.010976,27.8699923 C145.106005,27.8699923 146.810502,29.6657986 146.810502,31.8742928 C146.810502,34.101605 145.107478,35.9143998 143.014412,35.9143998 L137.759534,35.9143998 L137.759534,27.8699923 Z M146.457035,25.8959382 C147.507127,24.7221693 148.095257,23.1767461 148.095257,21.5435058 C148.095257,18.0564372 145.428789,15.2196329 142.150872,15.2196329 L134.943333,15.2196329 L134.943333,38.9189973 L143.010976,38.9150769 C146.656597,38.9150769 149.622285,35.7562768 149.622285,31.8742928 C149.622285,29.3769955 148.427615,27.155172 146.457035,25.8959382 L146.457035,25.8959382 Z" id="b"></path>
                <polygon id="n" points="120.053077 15.1448424 120.053077 34.6314678 108.647489 15.1351351 104.812834 15.1351351 104.812834 38.91236 107.751848 38.91236 107.751848 19.420225 119.16051 38.9189189 122.994652 38.9189189 122.994652 15.1448424"></polygon>
                <polygon id="a" points="86.3176725 15.7202245 86.1282149 15.2153676 82.9048892 15.2153676 73.8926662 38.9640687 77.0314489 38.9640687 84.5147695 19.2521283 91.9985994 38.9640687 95.1384008 38.9640687"></polygon>
                <polygon id="y" points="68.0752372 15.1351351 60.9587166 25.5956029 53.8573403 15.1351351 50.2673797 15.1351351 59.4799691 28.7008698 59.4894663 38.9189189 62.4271968 38.9189189 62.4361807 28.7013945 71.657754 15.1351351"></polygon>
                <path d="M26.7274267,11.7604402 L26.7294802,11.7604402 L30.2804535,8.21304939 L30.2773733,8.21304939 L38.3113412,0.188536064 C32.9466353,1.42057168 27.8463144,4.09053772 23.6346353,8.21304939 L2.07981176,8.21304939 C0.931148663,8.21304939 -0.000102673797,9.14355037 -0.000102673797,10.2902025 L-0.000102673797,36.3839731 C-0.000102673797,37.5308816 0.931148663,38.4611262 2.07981176,38.4611262 L28.2002824,38.4611262 C29.3494588,38.4611262 30.2804535,37.5308816 30.2804535,36.3839731 L30.2804535,14.8604007 L26.7294802,18.4080479 L26.7294802,34.9137354 L3.55112727,34.9137354 L3.55112727,11.7604402 L20.5187422,11.7604402 C17.8761754,15.2770621 16.0832342,19.2298323 15.1383786,23.337216 L26.7274267,11.7604402 Z" id="swoosh"></path>
            </g>
        </g>
    </g>
</svg>